<svg width="16" height="16" viewBox="0 0 16 16" fill="none" xmlns="http://www.w3.org/2000/svg">
<path d="M12 3L4 3M8 3V3C6.89543 3 6 3.89543 6 5V5.5C6 5.77614 5.77614 6 5.5 6L4.5 6C4.22386 6 4 6.22386 4 6.5V11.5C4 11.7761 4.22386 12 4.5 12H11.5C11.7761 12 12 11.7761 12 11.5V6.5C12 6.22386 11.7761 6 11.5 6H10.5C10.2239 6 10 5.77614 10 5.5V5C10 3.89543 9.10457 3 8 3Z" stroke="#aaa" stroke-width="1.5" stroke-linecap="round" stroke-linejoin="round"/>
<path d="M6.5 8.5L9.5 8.5" stroke="#aaa" stroke-width="1.5" stroke-linecap="round" stroke-linejoin="round"/>
</svg>
