<svg width="24" height="24" viewBox="0 0 24 24" fill="none" xmlns="http://www.w3.org/2000/svg">
<path d="M12 8a4 4 0 1 0 0 8 4 4 0 0 0 0-8zm8.94 4a7.967 7.967 0 0 0-.25-2l2.06-1.6-2-3.46-2.46.98a8.06 8.06 0 0 0-3.46-2l-.38-2.62h-4l-.38 2.62a8.06 8.06 0 0 0-3.46 2l-2.46-.98-2 3.46L3.31 10a7.967 7.967 0 0 0 0 4l-2.06 1.6 2 3.46 2.46-.98a8.06 8.06 0 0 0 3.46 2l.38 2.62h4l.38-2.62a8.06 8.06 0 0 0 3.46-2l2.46.98 2-3.46L20.69 14c.2-.65.25-1.32.25-2z" stroke="#E5E7EB" stroke-width="1.6" fill="none"/>
</svg>
